<?xml version="1.0" encoding="UTF-8" standalone="no"?>
<svg
   xmlns:dc="http://purl.org/dc/elements/1.1/"
   xmlns:cc="http://creativecommons.org/ns#"
   xmlns:rdf="http://www.w3.org/1999/02/22-rdf-syntax-ns#"
   xmlns:svg="http://www.w3.org/2000/svg"
   xmlns="http://www.w3.org/2000/svg"
   xmlns:sodipodi="http://sodipodi.sourceforge.net/DTD/sodipodi-0.dtd"
   xmlns:inkscape="http://www.inkscape.org/namespaces/inkscape"
   width="579"
   height="559"
   version="1.1"
   id="svg3791"
   sodipodi:docname="space_cleric_clear.svg"
   inkscape:version="0.92.3 (2405546, 2018-03-11)"
   inkscape:export-filename="/home/tomd/Projects/public/space-cleric/space-cleric.github.io/assets/images/space_cleric.svg.png"
   inkscape:export-xdpi="96"
   inkscape:export-ydpi="96">
  <metadata
     id="metadata3795">
    <rdf:RDF>
      <cc:Work
         rdf:about="">
        <dc:format>image/svg+xml</dc:format>
        <dc:type
           rdf:resource="http://purl.org/dc/dcmitype/StillImage" />
        <dc:title></dc:title>
      </cc:Work>
    </rdf:RDF>
  </metadata>
  <sodipodi:namedview
     pagecolor="#ffffff"
     bordercolor="#666666"
     borderopacity="1"
     objecttolerance="10"
     gridtolerance="10"
     guidetolerance="10"
     inkscape:pageopacity="0"
     inkscape:pageshadow="2"
     inkscape:window-width="1920"
     inkscape:window-height="1012"
     id="namedview3793"
     showgrid="false"
     inkscape:zoom="1.46"
     inkscape:cx="144.44737"
     inkscape:cy="279.5"
     inkscape:window-x="0"
     inkscape:window-y="32"
     inkscape:window-maximized="1"
     inkscape:current-layer="svg3791" />
  <defs
     id="SvgjsDefs1307" />
  <g
     id="SvgjsG1308"
     featurekey="root"
     fill="#15172a"
     style="fill:#000000" />
  <g
     id="SvgjsG1309"
     featurekey="container1"
     transform="matrix(2.6867236,0,0,2.6867236,20,10)"
     style="fill:#ffffff">
    <defs
       id="defs3776" />
    <path
       d="m 100.215,200.43 c 55.259,0 100.215,-44.956 100.215,-100.215 C 200.43,44.956 155.474,0 100.215,0 44.956,0 0,44.956 0,100.215 0,155.474 44.956,200.43 100.215,200.43 Z m 0,-190.43 c 49.745,0 90.215,40.47 90.215,90.215 0,49.745 -40.47,90.215 -90.215,90.215 C 50.47,190.43 10,149.959 10,100.215 10,50.471 50.47,10 100.215,10 Z"
       id="path3778"
       style="fill:#ffffff"
       inkscape:connector-curvature="0" />
  </g>
  <g
     id="SvgjsG1310"
     featurekey="symbol1"
     transform="matrix(2.4743724,0,0,2.3008729,172.26278,109.98938)"
     style="fill:#ffffff">
    <path
       d="m 90.01,33.695 c -0.021,-0.044 -0.029,-0.093 -0.057,-0.134 l -0.005,-0.007 c 0,-0.001 -10e-4,-0.001 -10e-4,-0.002 L 79.187,17.711 c -0.15,-0.223 -0.385,-0.375 -0.649,-0.423 l -40.18,-7.272 c -0.535,-0.094 -1.056,0.258 -1.159,0.795 l -4.46,23.076 H 11.125 c -0.553,0 -1,0.447 -1,1 v 54.25 c 0,0.553 0.447,1 1,1 h 54.25 c 0.553,0 1,-0.447 1,-1 V 72.252 l 15.347,2.778 c 0.059,0.011 0.118,0.016 0.178,0.016 0.202,0 0.401,-0.062 0.57,-0.179 0.218,-0.15 0.366,-0.382 0.414,-0.644 L 90.109,34.3 c 0.023,-0.13 0.019,-0.263 -0.008,-0.39 -0.017,-0.078 -0.057,-0.145 -0.091,-0.215 z M 78.906,20.858 86.959,32.713 77.083,30.926 Z M 12.125,88.137 v -52.25 h 38.832 v 12.679 c 0,0.553 0.447,1 1,1 H 64.375 V 88.137 Z M 52.957,37.334 62.994,47.565 H 52.957 Z M 81.094,72.883 66.375,70.219 V 48.565 c 0,-0.133 -0.027,-0.262 -0.077,-0.383 -0.031,-0.076 -0.085,-0.137 -0.133,-0.202 -0.028,-0.037 -0.043,-0.082 -0.076,-0.115 L 66.083,47.859 C 66.082,47.858 66.082,47.858 66.081,47.857 L 52.671,34.186 c -0.188,-0.191 -0.445,-0.3 -0.714,-0.3 H 34.774 l 4.199,-21.727 38.223,6.918 -2.258,12.477 c -0.098,0.543 0.263,1.063 0.807,1.162 l 12.219,2.211 z"
       id="path3781"
       style="fill:#ffffff"
       inkscape:connector-curvature="0" />
    <path
       d="M 52.1,60.229 C 54.703,57.027 55.482,54.4 54.353,52.63 52.869,50.304 48.74,50.586 43.982,52.273 42.838,47.447 40.866,43.91 38.141,43.91 c -2.712,0 -4.679,3.502 -5.826,8.292 -4.671,-1.623 -8.704,-1.866 -10.167,0.428 -1.129,1.77 -0.35,4.396 2.253,7.599 0.717,0.882 1.563,1.779 2.495,2.677 -0.932,0.898 -1.777,1.795 -2.495,2.677 -2.603,3.202 -3.382,5.829 -2.253,7.599 0.722,1.132 2.092,1.703 4.032,1.703 1.093,0 2.367,-0.181 3.809,-0.546 0.734,-0.186 1.501,-0.426 2.285,-0.697 1.14,4.882 3.121,8.473 5.867,8.473 2.758,0 4.745,-3.625 5.882,-8.542 0.856,0.302 1.691,0.564 2.489,0.766 1.442,0.365 2.716,0.546 3.809,0.546 1.94,0 3.311,-0.571 4.032,-1.703 1.129,-1.77 0.35,-4.396 -2.253,-7.599 -0.717,-0.882 -1.563,-1.779 -2.495,-2.677 0.932,-0.898 1.778,-1.796 2.495,-2.677 z M 38.141,45.91 c 1.309,0 2.941,2.558 3.978,7.075 -1.276,0.53 -2.576,1.153 -3.868,1.834 -1.36,-0.718 -2.729,-1.365 -4.07,-1.915 1.037,-4.466 2.658,-6.994 3.96,-6.994 z m 5.001,17.102 c 0,0.926 -0.029,1.809 -0.071,2.671 -0.69,0.488 -1.396,0.971 -2.13,1.439 -0.896,0.572 -1.795,1.104 -2.69,1.604 -0.895,-0.5 -1.794,-1.032 -2.69,-1.604 -0.814,-0.52 -1.597,-1.057 -2.358,-1.601 -0.037,-0.812 -0.063,-1.641 -0.063,-2.509 0,-0.948 0.031,-1.85 0.075,-2.731 0.757,-0.542 1.536,-1.076 2.346,-1.593 0.919,-0.587 1.815,-1.118 2.69,-1.608 0.875,0.49 1.771,1.021 2.691,1.608 0.729,0.465 1.431,0.945 2.118,1.431 0.048,0.931 0.082,1.887 0.082,2.893 z m 1.98,-1.362 c 0.528,0.416 1.031,0.835 1.519,1.255 -0.487,0.419 -0.988,0.837 -1.514,1.251 0.008,-0.382 0.014,-0.764 0.014,-1.145 0.001,-0.452 -0.007,-0.907 -0.019,-1.361 z m -2.237,6.584 c -0.093,0.92 -0.21,1.788 -0.346,2.613 -0.721,-0.308 -1.453,-0.646 -2.195,-1.015 0.558,-0.329 1.116,-0.669 1.672,-1.024 0.295,-0.188 0.58,-0.383 0.869,-0.574 z m -6.73,1.598 c -0.812,0.403 -1.614,0.773 -2.399,1.104 -0.149,-0.896 -0.276,-1.847 -0.374,-2.857 0.364,0.245 0.727,0.49 1.101,0.728 0.556,0.355 1.114,0.696 1.672,1.025 z m -5.007,-5.857 c -0.445,-0.355 -0.874,-0.711 -1.29,-1.069 0.417,-0.36 0.848,-0.718 1.295,-1.074 -0.009,0.394 -0.015,0.788 -0.015,1.18 10e-4,0.32 0.004,0.641 0.01,0.963 z m 2.254,-6.257 c 0.103,-1.004 0.235,-1.945 0.388,-2.835 0.763,0.322 1.555,0.684 2.377,1.093 -0.567,0.333 -1.13,0.674 -1.683,1.026 -0.368,0.235 -0.724,0.476 -1.082,0.716 z m 8.615,-0.715 c -0.552,-0.353 -1.115,-0.694 -1.683,-1.027 0.748,-0.372 1.472,-0.707 2.171,-1.007 0.139,0.82 0.263,1.678 0.36,2.594 -0.282,-0.187 -0.56,-0.376 -0.848,-0.56 z m -16.064,1.964 c -2.263,-2.782 -2.579,-4.542 -2.12,-5.261 0.322,-0.505 1.132,-0.779 2.334,-0.779 1.418,0 3.387,0.388 5.74,1.223 -0.294,1.612 -0.506,3.323 -0.631,5.065 -1.03,0.765 -2,1.548 -2.905,2.337 -0.907,-0.868 -1.727,-1.736 -2.418,-2.585 z m 3.544,13.432 c -3.476,0.88 -5.206,0.425 -5.664,-0.295 -0.459,-0.719 -0.143,-2.479 2.12,-5.261 0.69,-0.849 1.511,-1.717 2.418,-2.586 0.901,0.785 1.865,1.563 2.888,2.324 0.118,1.746 0.322,3.464 0.609,5.085 -0.816,0.291 -1.612,0.542 -2.371,0.733 z m 8.644,7.715 c -1.318,0 -2.964,-2.597 -3.999,-7.173 1.335,-0.546 2.714,-1.201 4.108,-1.941 1.323,0.702 2.634,1.331 3.906,1.859 -1.035,4.626 -2.69,7.255 -4.015,7.255 z m 12.406,-13.27 c 2.263,2.782 2.579,4.542 2.12,5.261 -0.459,0.72 -2.188,1.175 -5.664,0.295 -0.823,-0.208 -1.687,-0.479 -2.579,-0.802 0.271,-1.546 0.466,-3.179 0.583,-4.838 1.112,-0.817 2.151,-1.656 3.121,-2.501 0.908,0.868 1.728,1.735 2.419,2.585 z m -5.556,-7.805 c -0.125,-1.656 -0.327,-3.281 -0.604,-4.817 2.445,-0.888 4.487,-1.296 5.947,-1.296 1.202,0 2.012,0.274 2.334,0.779 0.459,0.719 0.143,2.479 -2.12,5.261 -0.69,0.849 -1.511,1.717 -2.418,2.586 -0.976,-0.849 -2.021,-1.692 -3.139,-2.513 z"
       id="path3783"
       style="fill:#ffffff"
       inkscape:connector-curvature="0" />
    <path
       d="m 38.141,59.849 c -1.744,0 -3.163,1.419 -3.163,3.163 0,1.744 1.419,3.163 3.163,3.163 1.744,0 3.163,-1.419 3.163,-3.163 0,-1.744 -1.419,-3.163 -3.163,-3.163 z m 0,4.326 c -0.642,0 -1.163,-0.521 -1.163,-1.163 0,-0.642 0.521,-1.163 1.163,-1.163 0.642,0 1.163,0.521 1.163,1.163 0,0.642 -0.522,1.163 -1.163,1.163 z"
       id="path3785"
       style="fill:#ffffff"
       inkscape:connector-curvature="0" />
  </g>
  <g
     id="SvgjsG1311"
     featurekey="text1"
     transform="matrix(2.9585795,0,0,2.9585795,114.39053,311.79291)"
     style="fill:#ffffff">
    <path
       d="M 5.64,24.3 Q 4.72,24.3 3.92,23.95 3.12,23.6 2.52,23 1.92,22.4 1.57,21.6 1.22,20.8 1.22,19.88 q 0,-0.38 0.26,-0.64 0.26,-0.26 0.64,-0.26 0.36,0 0.62,0.26 Q 3,19.5 3,19.88 q 0,0.54 0.21,1.02 0.21,0.48 0.57,0.84 0.36,0.36 0.84,0.57 0.48,0.21 1.02,0.21 0.54,0 1.03,-0.21 Q 7.16,22.1 7.52,21.74 7.88,21.38 8.09,20.9 8.3,20.42 8.3,19.88 8.3,19.22 8.04,18.79 7.78,18.36 7.32,18.04 7.1,17.88 6.82,17.75 6.54,17.62 6.24,17.48 5.94,17.36 5.62,17.24 5.3,17.12 4.96,17 4.3,16.76 3.63,16.46 2.96,16.16 2.43,15.71 1.9,15.26 1.56,14.59 1.22,13.92 1.22,12.94 q 0,-0.92 0.35,-1.72 0.35,-0.8 0.95,-1.4 0.6,-0.6 1.4,-0.95 0.8,-0.35 1.72,-0.35 0.92,0 1.73,0.35 0.81,0.35 1.41,0.95 0.6,0.6 0.95,1.4 0.35,0.8 0.35,1.72 0,0.36 -0.26,0.62 -0.26,0.26 -0.64,0.26 -0.36,0 -0.62,-0.26 Q 8.3,13.3 8.3,12.94 8.3,12.4 8.09,11.91 7.88,11.42 7.52,11.06 7.16,10.7 6.67,10.49 6.18,10.28 5.64,10.28 5.1,10.28 4.62,10.49 4.14,10.7 3.78,11.06 3.42,11.42 3.21,11.91 3,12.4 3,12.94 q 0,0.6 0.25,1 0.25,0.4 0.71,0.7 0.48,0.3 1.08,0.54 l 0.64,0.24 q 0,0 0.66,0.24 0.66,0.24 1.33,0.55 0.67,0.31 1.2,0.78 0.53,0.47 0.87,1.17 0.34,0.7 0.34,1.72 0,0.92 -0.35,1.72 Q 9.38,22.4 8.78,23 8.18,23.6 7.37,23.95 6.56,24.3 5.64,24.3 Z m 12.48,0 q -0.96,0 -1.82,-0.33 -0.86,-0.33 -1.56,-0.93 v 4.86 q 0,0.38 -0.26,0.64 -0.26,0.26 -0.62,0.26 -0.38,0 -0.64,-0.26 -0.26,-0.26 -0.26,-0.64 V 14.88 q 0,-0.36 0.26,-0.62 0.26,-0.26 0.64,-0.26 0.36,0 0.62,0.26 0.26,0.26 0.26,0.62 v 0.38 q 0.7,-0.6 1.56,-0.93 0.86,-0.33 1.82,-0.33 1.06,0 2,0.41 0.94,0.41 1.64,1.11 0.7,0.7 1.1,1.63 0.4,0.93 0.4,1.99 0,1.06 -0.4,2 -0.4,0.94 -1.1,1.64 -0.7,0.7 -1.64,1.11 -0.94,0.41 -2,0.41 z m 0,-8.52 q -0.7,0 -1.31,0.26 -0.61,0.26 -1.07,0.72 -0.46,0.46 -0.73,1.07 -0.27,0.61 -0.27,1.31 0,0.7 0.27,1.31 0.27,0.61 0.73,1.07 0.46,0.46 1.07,0.73 0.61,0.27 1.31,0.27 0.7,0 1.31,-0.27 0.61,-0.27 1.07,-0.73 0.46,-0.46 0.72,-1.07 0.26,-0.61 0.26,-1.31 0,-0.7 -0.26,-1.31 -0.26,-0.61 -0.72,-1.07 -0.46,-0.46 -1.07,-0.72 -0.61,-0.26 -1.31,-0.26 z m 16.12,8.52 q -0.38,0 -0.64,-0.26 -0.26,-0.26 -0.26,-0.62 v -0.38 q -0.7,0.6 -1.56,0.93 -0.86,0.33 -1.8,0.33 -1.06,0 -2,-0.41 -0.94,-0.41 -1.64,-1.11 -0.7,-0.7 -1.11,-1.63 -0.41,-0.93 -0.41,-1.99 0,-1.06 0.41,-2 0.41,-0.94 1.11,-1.64 0.7,-0.7 1.64,-1.11 0.94,-0.41 2,-0.41 0.94,0 1.8,0.33 0.86,0.33 1.56,0.93 v -0.38 q 0,-0.36 0.26,-0.62 0.26,-0.26 0.64,-0.26 0.36,0 0.62,0.26 0.26,0.26 0.26,0.62 v 8.54 q 0,0.36 -0.26,0.62 -0.26,0.26 -0.62,0.26 z m -4.26,-8.52 q -0.7,0 -1.31,0.27 -0.61,0.27 -1.07,0.73 -0.46,0.46 -0.73,1.07 -0.27,0.61 -0.27,1.31 0,0.7 0.27,1.31 0.27,0.61 0.73,1.07 0.46,0.46 1.07,0.72 0.61,0.26 1.31,0.26 0.7,0 1.31,-0.26 0.61,-0.26 1.07,-0.72 0.46,-0.46 0.72,-1.07 0.26,-0.61 0.26,-1.31 0,-0.7 -0.26,-1.31 -0.26,-0.61 -0.72,-1.07 -0.46,-0.46 -1.07,-0.73 -0.61,-0.27 -1.31,-0.27 z m 15.74,1.24 q -0.2,0 -0.34,-0.07 -0.14,-0.07 -0.26,-0.17 -0.58,-0.5 -1.12,-0.75 -0.54,-0.25 -1.28,-0.25 -0.7,0 -1.31,0.27 -0.61,0.27 -1.07,0.73 -0.46,0.46 -0.73,1.07 -0.27,0.61 -0.27,1.31 0,0.7 0.27,1.31 0.27,0.61 0.73,1.07 0.46,0.46 1.07,0.72 0.61,0.26 1.31,0.26 0.74,0 1.28,-0.25 0.54,-0.25 1.12,-0.75 0.12,-0.1 0.26,-0.17 0.14,-0.07 0.34,-0.07 0.38,0 0.64,0.26 0.26,0.26 0.26,0.62 0,0.2 -0.08,0.35 -0.08,0.15 -0.18,0.27 -0.34,0.36 -0.77,0.65 -0.43,0.29 -0.91,0.48 -0.48,0.19 -0.98,0.29 -0.5,0.1 -0.98,0.1 -1.06,0 -2,-0.41 -0.94,-0.41 -1.64,-1.11 -0.7,-0.7 -1.11,-1.63 -0.41,-0.93 -0.41,-1.99 0,-1.06 0.41,-2 0.41,-0.94 1.11,-1.64 0.7,-0.7 1.64,-1.11 0.94,-0.41 2,-0.41 0.48,0 0.98,0.1 0.5,0.1 0.98,0.29 0.48,0.19 0.91,0.48 0.43,0.29 0.77,0.65 0.1,0.12 0.18,0.27 0.08,0.15 0.08,0.35 0,0.36 -0.26,0.62 -0.26,0.26 -0.64,0.26 z m 11.68,2.6 h -7.58 q 0.08,0.62 0.37,1.15 0.29,0.53 0.74,0.92 0.45,0.39 1.02,0.61 0.57,0.22 1.21,0.22 0.38,0 0.69,-0.06 0.31,-0.06 0.58,-0.19 0.27,-0.13 0.54,-0.32 0.27,-0.19 0.59,-0.43 0.12,-0.1 0.25,-0.17 0.13,-0.07 0.35,-0.07 0.38,0 0.64,0.26 0.26,0.26 0.26,0.62 0,0.22 -0.08,0.36 -0.08,0.14 -0.18,0.26 -0.32,0.36 -0.75,0.65 -0.43,0.29 -0.92,0.48 -0.49,0.19 -1,0.29 -0.51,0.1 -0.97,0.1 -1.06,0 -2,-0.41 -0.94,-0.41 -1.64,-1.11 -0.7,-0.7 -1.11,-1.63 Q 48,20.22 48,19.16 q 0,-1.06 0.41,-2 0.41,-0.94 1.11,-1.64 0.7,-0.7 1.64,-1.11 0.94,-0.41 2,-0.41 1.02,0 1.92,0.34 0.9,0.34 1.6,0.97 0.7,0.63 1.12,1.5 0.42,0.87 0.48,1.91 0.02,0.4 -0.25,0.65 -0.27,0.25 -0.63,0.25 z m -4.24,-3.84 q -1.04,0 -1.88,0.57 -0.84,0.57 -1.24,1.49 h 6.22 q -0.38,-0.94 -1.23,-1.5 -0.85,-0.56 -1.87,-0.56 z m 22.12,8.52 q -1.66,0 -3.11,-0.63 -1.45,-0.63 -2.53,-1.71 -1.08,-1.08 -1.71,-2.53 -0.63,-1.45 -0.63,-3.11 0,-1.64 0.63,-3.07 0.63,-1.43 1.71,-2.48 1.08,-1.05 2.53,-1.65 1.45,-0.6 3.11,-0.6 1.6,0 3.04,0.59 1.44,0.59 2.58,1.73 0.28,0.28 0.28,0.64 0,0.36 -0.28,0.62 -0.26,0.26 -0.62,0.26 -0.36,0 -0.62,-0.26 -0.9,-0.9 -2.02,-1.36 -1.12,-0.46 -2.36,-0.46 -1.3,0 -2.43,0.47 -1.13,0.47 -1.97,1.28 -0.84,0.81 -1.32,1.91 -0.48,1.1 -0.48,2.38 0,1.28 0.49,2.41 0.49,1.13 1.33,1.97 0.84,0.84 1.97,1.33 1.13,0.49 2.41,0.49 1.24,0 2.36,-0.46 1.12,-0.46 2.02,-1.34 0.26,-0.28 0.62,-0.28 0.36,0 0.62,0.28 0.28,0.26 0.28,0.62 0,0.36 -0.28,0.62 -1.14,1.14 -2.58,1.74 -1.44,0.6 -3.04,0.6 z m 9.66,0 q -0.36,0 -0.62,-0.26 -0.26,-0.26 -0.26,-0.62 V 9.4 q 0,-0.36 0.26,-0.62 0.26,-0.26 0.62,-0.26 0.36,0 0.62,0.26 0.26,0.26 0.26,0.62 v 14.02 q 0,0.36 -0.26,0.62 -0.26,0.26 -0.62,0.26 z M 97.68,19.62 H 90.1 q 0.08,0.62 0.37,1.15 0.29,0.53 0.74,0.92 0.45,0.39 1.02,0.61 0.57,0.22 1.21,0.22 0.38,0 0.69,-0.06 0.31,-0.06 0.58,-0.19 0.27,-0.13 0.54,-0.32 0.27,-0.19 0.59,-0.43 0.12,-0.1 0.25,-0.17 0.13,-0.07 0.35,-0.07 0.38,0 0.64,0.26 0.26,0.26 0.26,0.62 0,0.22 -0.08,0.36 -0.08,0.14 -0.18,0.26 -0.32,0.36 -0.75,0.65 -0.43,0.29 -0.92,0.48 -0.49,0.19 -1,0.29 -0.51,0.1 -0.97,0.1 -1.06,0 -2,-0.41 -0.94,-0.41 -1.64,-1.11 -0.7,-0.7 -1.11,-1.63 -0.41,-0.93 -0.41,-1.99 0,-1.06 0.41,-2 0.41,-0.94 1.11,-1.64 0.7,-0.7 1.64,-1.11 0.94,-0.41 2,-0.41 1.02,0 1.92,0.34 0.9,0.34 1.6,0.97 0.7,0.63 1.12,1.5 0.42,0.87 0.48,1.91 0.02,0.4 -0.25,0.65 -0.27,0.25 -0.63,0.25 z m -4.24,-3.84 q -1.04,0 -1.88,0.57 -0.84,0.57 -1.24,1.49 h 6.22 q -0.38,-0.94 -1.23,-1.5 -0.85,-0.56 -1.87,-0.56 z m 9.28,-1.2 q 0.32,-0.28 0.71,-0.43 0.39,-0.15 0.79,-0.15 0.98,0 1.61,0.48 0.63,0.48 0.97,1.38 0.08,0.2 0.06,0.42 -0.02,0.22 -0.13,0.4 -0.11,0.18 -0.3,0.29 -0.19,0.11 -0.45,0.11 -0.22,0 -0.39,-0.1 -0.17,-0.1 -0.29,-0.24 -0.1,-0.12 -0.17,-0.25 -0.07,-0.13 -0.15,-0.27 -0.14,-0.22 -0.31,-0.36 -0.17,-0.14 -0.57,-0.1 -0.26,0.02 -0.5,0.16 -0.24,0.14 -0.42,0.34 -0.18,0.2 -0.29,0.45 -0.11,0.25 -0.11,0.51 v 6.2 q 0,0.36 -0.26,0.62 -0.26,0.26 -0.62,0.26 -0.38,0 -0.64,-0.26 Q 101,23.78 101,23.42 v -8.54 q 0,-0.36 0.26,-0.62 0.26,-0.26 0.64,-0.26 0.28,0 0.5,0.16 0.22,0.16 0.32,0.42 z M 110,12.64 q -0.48,0 -0.83,-0.35 -0.35,-0.35 -0.35,-0.83 0,-0.5 0.35,-0.83 0.35,-0.33 0.83,-0.33 0.5,0 0.84,0.33 0.34,0.33 0.34,0.83 0,0.48 -0.35,0.83 -0.35,0.35 -0.83,0.35 z m 0,11.66 q -0.36,0 -0.62,-0.26 -0.26,-0.26 -0.26,-0.62 v -8.54 q 0,-0.36 0.26,-0.62 Q 109.64,14 110,14 q 0.36,0 0.63,0.26 0.27,0.26 0.27,0.62 v 8.54 q 0,0.36 -0.27,0.62 -0.27,0.26 -0.63,0.26 z m 11.78,-7.28 q -0.2,0 -0.34,-0.07 -0.14,-0.07 -0.26,-0.17 -0.58,-0.5 -1.12,-0.75 -0.54,-0.25 -1.28,-0.25 -0.7,0 -1.31,0.27 -0.61,0.27 -1.07,0.73 -0.46,0.46 -0.73,1.07 -0.27,0.61 -0.27,1.31 0,0.7 0.27,1.31 0.27,0.61 0.73,1.07 0.46,0.46 1.07,0.72 0.61,0.26 1.31,0.26 0.74,0 1.28,-0.25 0.54,-0.25 1.12,-0.75 0.12,-0.1 0.26,-0.17 0.14,-0.07 0.34,-0.07 0.38,0 0.64,0.26 0.26,0.26 0.26,0.62 0,0.2 -0.08,0.35 -0.08,0.15 -0.18,0.27 -0.34,0.36 -0.77,0.65 -0.43,0.29 -0.91,0.48 -0.48,0.19 -0.98,0.29 -0.5,0.1 -0.98,0.1 -1.06,0 -2,-0.41 -0.94,-0.41 -1.64,-1.11 -0.7,-0.7 -1.11,-1.63 -0.41,-0.93 -0.41,-1.99 0,-1.06 0.41,-2 0.41,-0.94 1.11,-1.64 0.7,-0.7 1.64,-1.11 0.94,-0.41 2,-0.41 0.48,0 0.98,0.1 0.5,0.1 0.98,0.29 0.48,0.19 0.91,0.48 0.43,0.29 0.77,0.65 0.1,0.12 0.18,0.27 0.08,0.15 0.08,0.35 0,0.36 -0.26,0.62 -0.26,0.26 -0.64,0.26 z"
       id="path3788"
       style="fill:#ffffff"
       inkscape:connector-curvature="0" />
  </g>
</svg>
